<svg xmlns="http://www.w3.org/2000/svg" xmlns:xlink="http://www.w3.org/1999/xlink" width="293" height="442" viewBox="0 0 293 442">
  <defs>
    <linearGradient id="linear-gradient" x1="0.5" x2="0.5" y2="1" gradientUnits="objectBoundingBox">
      <stop offset="0" stop-color="#ff0089"/>
      <stop offset="0.515" stop-color="#ff7600"/>
      <stop offset="1" stop-color="#6cff00"/>
    </linearGradient>
    <linearGradient id="linear-gradient-2" x1="0.5" x2="0.5" y2="1" gradientUnits="objectBoundingBox">
      <stop offset="0" stop-color="#ff0089"/>
      <stop offset="0.5" stop-color="#ff7600"/>
      <stop offset="1" stop-color="#12a852"/>
    </linearGradient>
    <clipPath id="clip-path">
      <path id="Path_3" data-name="Path 3" d="M0,12H293V440H0Zm0,0" fill="url(#linear-gradient)"/>
    </clipPath>
    <clipPath id="clip-path-2">
      <path id="Path_2" data-name="Path 2" d="M190.113,439.059s11.41-103.094,36.992-209.727,65.336-216.8,65.336-216.8H0S36.707,129.719,59.578,236.348a1965.982,1965.982,0,0,1,31.9,202.711Zm0,0" fill="url(#linear-gradient-2)"/>
    </clipPath>
    <linearGradient id="linear-gradient-3" x1="0.5" x2="0.5" y2="1" gradientUnits="objectBoundingBox">
      <stop offset="0" stop-color="#ff0089"/>
      <stop offset="0.5" stop-color="#ff7600"/>
      <stop offset="1" stop-color="#00ff9d"/>
    </linearGradient>
  </defs>
  <g id="Group_19" data-name="Group 19" transform="translate(-347 -112)">
    <g id="Group_2" data-name="Group 2" transform="translate(347 112)" clip-path="url(#clip-path)">
      <g id="Group_1" data-name="Group 1" clip-path="url(#clip-path-2)">
        <path id="Path_1" data-name="Path 1" d="M0,12.531V439.059H292.441V12.531Zm0,0" fill="url(#linear-gradient-3)"/>
      </g>
    </g>
    <path id="Path_4" data-name="Path 4" d="M25.223,100.07h0ZM.559,13.164,25.223,100.07H262.891l29.293-87.187Zm0,0" transform="translate(347 112)" fill="rgba(255,255,255,0.1)"/>
    <path id="Path_5" data-name="Path 5" d="M25.641,99.938H263.273l-37,130.512H58.324Zm0,0h0Zm0,0" transform="translate(347 112)" fill="rgba(255,255,255,0.2)"/>
    <path id="Path_6" data-name="Path 6" d="M226.531,230.3h0ZM78.227,334.539H205.594l8.941-48.984,12-55.25H58.289l9.094,44.629Zm0,0h0Zm0,0" transform="translate(347 112)" fill="rgba(255,255,255,0.1)"/>
    <path id="Path_7" data-name="Path 7" d="M141,436c27.063,0,49,1.344,49,3s-21.937,3-49,3-49-1.344-49-3S113.938,436,141,436Zm0,0" transform="translate(347 112)" fill="#0a6459"/>
    <path id="Path_20" data-name="Path 20" d="M146,0c80.633,0,146,5.371,146,12S226.633,24,146,24,0,18.629,0,12,65.367,0,146,0Zm0,0" transform="translate(347 112)" fill="#c30f0f"/>
    <g id="Group_20" data-name="Group 20" transform="translate(-147 -67)">
      <g id="Group_20-2" data-name="Group 20" transform="translate(492.279 179)">
        <g id="Group_3" data-name="Group 3" transform="translate(123.408 73)">
          <path id="Path_8" data-name="Path 8" d="M.313-9.937,4.344-14H6.484V0H4.031V-10.844L1.75-8.437Zm0,0" fill="#fff"/>
        </g>
        <g id="Group_4" data-name="Group 4" transform="translate(131.386 73)">
          <path id="Path_9" data-name="Path 9" d="M.875-7a10.6,10.6,0,0,1,.2-2.094,8.416,8.416,0,0,1,.641-1.969A6.2,6.2,0,0,1,2.8-12.687,5,5,0,0,1,4.391-13.8a5.167,5.167,0,0,1,2.094-.422,5.078,5.078,0,0,1,2.078.422,4.874,4.874,0,0,1,1.594,1.109,6.4,6.4,0,0,1,1.078,1.625,8.8,8.8,0,0,1,.641,1.969A10.9,10.9,0,0,1,12.078-7a11.066,11.066,0,0,1-.2,2.109,8.668,8.668,0,0,1-.641,1.969,6.491,6.491,0,0,1-1.078,1.641A4.687,4.687,0,0,1,8.563-.156,5.2,5.2,0,0,1,6.484.25,5.3,5.3,0,0,1,4.391-.156,4.8,4.8,0,0,1,2.8-1.281,6.288,6.288,0,0,1,1.719-2.922a8.3,8.3,0,0,1-.641-1.969A10.759,10.759,0,0,1,.875-7ZM3.547-8.922A10.878,10.878,0,0,0,3.391-7a11.06,11.06,0,0,0,.156,1.938,6.021,6.021,0,0,0,.531,1.594,2.924,2.924,0,0,0,.969,1.141,2.5,2.5,0,0,0,1.438.406,2.514,2.514,0,0,0,1.438-.406,2.8,2.8,0,0,0,.969-1.141,6.81,6.81,0,0,0,.516-1.594A10.3,10.3,0,0,0,9.578-7a10.133,10.133,0,0,0-.172-1.922,5.96,5.96,0,0,0-.516-1.594,2.686,2.686,0,0,0-.953-1.109,2.578,2.578,0,0,0-1.453-.406,2.526,2.526,0,0,0-1.437.406,2.748,2.748,0,0,0-.969,1.109A6.118,6.118,0,0,0,3.547-8.922Zm0,0" fill="#fff"/>
        </g>
        <g id="Group_5" data-name="Group 5" transform="translate(144.336 73)">
          <path id="Path_10" data-name="Path 10" d="M.875-7a10.6,10.6,0,0,1,.2-2.094,8.416,8.416,0,0,1,.641-1.969A6.2,6.2,0,0,1,2.8-12.687,5,5,0,0,1,4.391-13.8a5.167,5.167,0,0,1,2.094-.422,5.078,5.078,0,0,1,2.078.422,4.874,4.874,0,0,1,1.594,1.109,6.4,6.4,0,0,1,1.078,1.625,8.8,8.8,0,0,1,.641,1.969A10.9,10.9,0,0,1,12.078-7a11.066,11.066,0,0,1-.2,2.109,8.668,8.668,0,0,1-.641,1.969,6.491,6.491,0,0,1-1.078,1.641A4.687,4.687,0,0,1,8.563-.156,5.2,5.2,0,0,1,6.484.25,5.3,5.3,0,0,1,4.391-.156,4.8,4.8,0,0,1,2.8-1.281,6.288,6.288,0,0,1,1.719-2.922a8.3,8.3,0,0,1-.641-1.969A10.759,10.759,0,0,1,.875-7ZM3.547-8.922A10.878,10.878,0,0,0,3.391-7a11.06,11.06,0,0,0,.156,1.938,6.021,6.021,0,0,0,.531,1.594,2.924,2.924,0,0,0,.969,1.141,2.5,2.5,0,0,0,1.438.406,2.514,2.514,0,0,0,1.438-.406,2.8,2.8,0,0,0,.969-1.141,6.81,6.81,0,0,0,.516-1.594A10.3,10.3,0,0,0,9.578-7a10.133,10.133,0,0,0-.172-1.922,5.96,5.96,0,0,0-.516-1.594,2.686,2.686,0,0,0-.953-1.109,2.578,2.578,0,0,0-1.453-.406,2.526,2.526,0,0,0-1.437.406,2.748,2.748,0,0,0-.969,1.109A6.118,6.118,0,0,0,3.547-8.922Zm0,0" fill="#fff"/>
        </g>
        <g id="Group_6" data-name="Group 6" transform="translate(157.287 73)">
          <path id="Path_11" data-name="Path 11" d="M.578-10.734a3.392,3.392,0,0,1,.969-2.484,3.371,3.371,0,0,1,2.531-1,3.4,3.4,0,0,1,2.516.984,3.426,3.426,0,0,1,.969,2.5A3.427,3.427,0,0,1,6.594-8.25a3.384,3.384,0,0,1-2.516.984A3.42,3.42,0,0,1,1.547-8.25,3.411,3.411,0,0,1,.578-10.734Zm1.641,0A2.14,2.14,0,0,0,2.734-9.25a1.736,1.736,0,0,0,1.344.578A1.747,1.747,0,0,0,5.422-9.25a2.113,2.113,0,0,0,.531-1.484,2.146,2.146,0,0,0-.531-1.5,1.735,1.735,0,0,0-1.344-.594,1.724,1.724,0,0,0-1.344.594A2.173,2.173,0,0,0,2.219-10.734ZM2.7,0l8.953-14h1.422L4.109,0ZM8.125-3.2a3.41,3.41,0,0,1,.969-2.5,3.354,3.354,0,0,1,2.516-1,3.383,3.383,0,0,1,2.531,1,3.426,3.426,0,0,1,.969,2.5,3.353,3.353,0,0,1-.984,2.469A3.384,3.384,0,0,1,11.609.25,3.4,3.4,0,0,1,9.094-.734,3.356,3.356,0,0,1,8.125-3.2Zm1.609,0a2.1,2.1,0,0,0,.531,1.484,1.763,1.763,0,0,0,1.344.563,1.74,1.74,0,0,0,1.344-.562A2.113,2.113,0,0,0,13.484-3.2a2.207,2.207,0,0,0-.531-1.516,1.7,1.7,0,0,0-1.344-.594,1.724,1.724,0,0,0-1.344.594A2.188,2.188,0,0,0,9.734-3.2Zm0,0" fill="#fff"/>
        </g>
      </g>
      <g id="Group_21" data-name="Group 21" transform="translate(492.389 179)">
        <g id="Group_8" data-name="Group 8" transform="translate(127.408 179)">
          <path id="Path_12" data-name="Path 12" d="M1.2-1.906l1.406-1.7A4.676,4.676,0,0,0,6.375-1.922a3,3,0,0,0,2.078-.7,2.32,2.32,0,0,0,.781-1.781,2.287,2.287,0,0,0-.766-1.8,2.922,2.922,0,0,0-2.047-.687,4.353,4.353,0,0,0-3.062,1.2l-1.734-.5V-14H10.8v2.156H4.078v4.031a4.285,4.285,0,0,1,1.391-.859A4.638,4.638,0,0,1,7.25-9.016a4.791,4.791,0,0,1,2.2.516,4.037,4.037,0,0,1,1.641,1.563,4.63,4.63,0,0,1,.641,2.453,4.326,4.326,0,0,1-1.5,3.438A5.626,5.626,0,0,1,6.391.25,6.482,6.482,0,0,1,1.2-1.906Zm0,0" fill="#fff"/>
        </g>
        <g id="Group_9" data-name="Group 9" transform="translate(140 179)">
          <path id="Path_13" data-name="Path 13" d="M.875-7a10.6,10.6,0,0,1,.2-2.094,8.416,8.416,0,0,1,.641-1.969A6.2,6.2,0,0,1,2.8-12.687,5,5,0,0,1,4.391-13.8a5.167,5.167,0,0,1,2.094-.422,5.078,5.078,0,0,1,2.078.422,4.874,4.874,0,0,1,1.594,1.109,6.4,6.4,0,0,1,1.078,1.625,8.8,8.8,0,0,1,.641,1.969A10.9,10.9,0,0,1,12.078-7a11.066,11.066,0,0,1-.2,2.109,8.668,8.668,0,0,1-.641,1.969,6.491,6.491,0,0,1-1.078,1.641A4.687,4.687,0,0,1,8.563-.156,5.2,5.2,0,0,1,6.484.25,5.3,5.3,0,0,1,4.391-.156,4.8,4.8,0,0,1,2.8-1.281,6.288,6.288,0,0,1,1.719-2.922a8.3,8.3,0,0,1-.641-1.969A10.759,10.759,0,0,1,.875-7ZM3.547-8.922A10.878,10.878,0,0,0,3.391-7a11.06,11.06,0,0,0,.156,1.938,6.021,6.021,0,0,0,.531,1.594,2.924,2.924,0,0,0,.969,1.141,2.5,2.5,0,0,0,1.438.406,2.514,2.514,0,0,0,1.438-.406,2.8,2.8,0,0,0,.969-1.141,6.81,6.81,0,0,0,.516-1.594A10.3,10.3,0,0,0,9.578-7a10.133,10.133,0,0,0-.172-1.922,5.96,5.96,0,0,0-.516-1.594,2.686,2.686,0,0,0-.953-1.109,2.578,2.578,0,0,0-1.453-.406,2.526,2.526,0,0,0-1.437.406,2.748,2.748,0,0,0-.969,1.109A6.118,6.118,0,0,0,3.547-8.922Zm0,0" fill="#fff"/>
        </g>
        <g id="Group_10" data-name="Group 10" transform="translate(152.951 179)">
          <path id="Path_14" data-name="Path 14" d="M.578-10.734a3.392,3.392,0,0,1,.969-2.484,3.371,3.371,0,0,1,2.531-1,3.4,3.4,0,0,1,2.516.984,3.426,3.426,0,0,1,.969,2.5A3.427,3.427,0,0,1,6.594-8.25a3.384,3.384,0,0,1-2.516.984A3.42,3.42,0,0,1,1.547-8.25,3.411,3.411,0,0,1,.578-10.734Zm1.641,0A2.14,2.14,0,0,0,2.734-9.25a1.736,1.736,0,0,0,1.344.578A1.747,1.747,0,0,0,5.422-9.25a2.113,2.113,0,0,0,.531-1.484,2.146,2.146,0,0,0-.531-1.5,1.735,1.735,0,0,0-1.344-.594,1.724,1.724,0,0,0-1.344.594A2.173,2.173,0,0,0,2.219-10.734ZM2.7,0l8.953-14h1.422L4.109,0ZM8.125-3.2a3.41,3.41,0,0,1,.969-2.5,3.354,3.354,0,0,1,2.516-1,3.383,3.383,0,0,1,2.531,1,3.426,3.426,0,0,1,.969,2.5,3.353,3.353,0,0,1-.984,2.469A3.384,3.384,0,0,1,11.609.25,3.4,3.4,0,0,1,9.094-.734,3.356,3.356,0,0,1,8.125-3.2Zm1.609,0a2.1,2.1,0,0,0,.531,1.484,1.763,1.763,0,0,0,1.344.563,1.74,1.74,0,0,0,1.344-.562A2.113,2.113,0,0,0,13.484-3.2a2.207,2.207,0,0,0-.531-1.516,1.7,1.7,0,0,0-1.344-.594,1.724,1.724,0,0,0-1.344.594A2.188,2.188,0,0,0,9.734-3.2Zm0,0" fill="#fff"/>
        </g>
      </g>
      <g id="Group_22" data-name="Group 22" transform="translate(492.733 179)">
        <g id="Group_12" data-name="Group 12" transform="translate(127.408 290)">
          <path id="Path_15" data-name="Path 15" d="M.859-11.969a5.867,5.867,0,0,1,2.281-1.672,7.45,7.45,0,0,1,2.906-.578,6.349,6.349,0,0,1,2.516.484,4.3,4.3,0,0,1,1.828,1.484,3.861,3.861,0,0,1,.719,2.328,4.413,4.413,0,0,1-.3,1.563,6.526,6.526,0,0,1-.781,1.484A11.217,11.217,0,0,1,8.75-5.344c-.531.531-1.1,1.051-1.687,1.547S5.789-2.758,5-2.156h6.2V0H1.047V-1.953c1-.758,1.816-1.383,2.453-1.875S4.77-4.844,5.406-5.375A15.846,15.846,0,0,0,6.891-6.719a12.318,12.318,0,0,0,.969-1.125,4.163,4.163,0,0,0,.609-1.062,3.133,3.133,0,0,0,.172-1.016,1.9,1.9,0,0,0-.391-1.187,2.042,2.042,0,0,0-.937-.7,3.415,3.415,0,0,0-1.234-.219,4.9,4.9,0,0,0-3.8,1.656Zm0,0" fill="#fff"/>
        </g>
        <g id="Group_13" data-name="Group 13" transform="translate(139.897 290)">
          <path id="Path_16" data-name="Path 16" d="M1.2-1.906l1.406-1.7A4.676,4.676,0,0,0,6.375-1.922a3,3,0,0,0,2.078-.7,2.32,2.32,0,0,0,.781-1.781,2.287,2.287,0,0,0-.766-1.8,2.922,2.922,0,0,0-2.047-.687,4.353,4.353,0,0,0-3.062,1.2l-1.734-.5V-14H10.8v2.156H4.078v4.031a4.285,4.285,0,0,1,1.391-.859A4.638,4.638,0,0,1,7.25-9.016a4.791,4.791,0,0,1,2.2.516,4.037,4.037,0,0,1,1.641,1.563,4.63,4.63,0,0,1,.641,2.453,4.326,4.326,0,0,1-1.5,3.438A5.626,5.626,0,0,1,6.391.25,6.482,6.482,0,0,1,1.2-1.906Zm0,0" fill="#fff"/>
        </g>
        <g id="Group_14" data-name="Group 14" transform="translate(152.489 290)">
          <path id="Path_17" data-name="Path 17" d="M.578-10.734a3.392,3.392,0,0,1,.969-2.484,3.371,3.371,0,0,1,2.531-1,3.4,3.4,0,0,1,2.516.984,3.426,3.426,0,0,1,.969,2.5A3.427,3.427,0,0,1,6.594-8.25a3.384,3.384,0,0,1-2.516.984A3.42,3.42,0,0,1,1.547-8.25,3.411,3.411,0,0,1,.578-10.734Zm1.641,0A2.14,2.14,0,0,0,2.734-9.25a1.736,1.736,0,0,0,1.344.578A1.747,1.747,0,0,0,5.422-9.25a2.113,2.113,0,0,0,.531-1.484,2.146,2.146,0,0,0-.531-1.5,1.735,1.735,0,0,0-1.344-.594,1.724,1.724,0,0,0-1.344.594A2.173,2.173,0,0,0,2.219-10.734ZM2.7,0l8.953-14h1.422L4.109,0ZM8.125-3.2a3.41,3.41,0,0,1,.969-2.5,3.354,3.354,0,0,1,2.516-1,3.383,3.383,0,0,1,2.531,1,3.426,3.426,0,0,1,.969,2.5,3.353,3.353,0,0,1-.984,2.469A3.384,3.384,0,0,1,11.609.25,3.4,3.4,0,0,1,9.094-.734,3.356,3.356,0,0,1,8.125-3.2Zm1.609,0a2.1,2.1,0,0,0,.531,1.484,1.763,1.763,0,0,0,1.344.563,1.74,1.74,0,0,0,1.344-.562A2.113,2.113,0,0,0,13.484-3.2a2.207,2.207,0,0,0-.531-1.516,1.7,1.7,0,0,0-1.344-.594,1.724,1.724,0,0,0-1.344.594A2.188,2.188,0,0,0,9.734-3.2Zm0,0" fill="#fff"/>
        </g>
      </g>
      <g id="Group_23" data-name="Group 23" transform="translate(492.733 179)">
        <g id="Group_16" data-name="Group 16" transform="translate(133.408 396)">
          <path id="Path_18" data-name="Path 18" d="M.859-11.969a5.867,5.867,0,0,1,2.281-1.672,7.45,7.45,0,0,1,2.906-.578,6.349,6.349,0,0,1,2.516.484,4.3,4.3,0,0,1,1.828,1.484,3.861,3.861,0,0,1,.719,2.328,4.413,4.413,0,0,1-.3,1.563,6.526,6.526,0,0,1-.781,1.484A11.217,11.217,0,0,1,8.75-5.344c-.531.531-1.1,1.051-1.687,1.547S5.789-2.758,5-2.156h6.2V0H1.047V-1.953c1-.758,1.816-1.383,2.453-1.875S4.77-4.844,5.406-5.375A15.846,15.846,0,0,0,6.891-6.719a12.318,12.318,0,0,0,.969-1.125,4.163,4.163,0,0,0,.609-1.062,3.133,3.133,0,0,0,.172-1.016,1.9,1.9,0,0,0-.391-1.187,2.042,2.042,0,0,0-.937-.7,3.415,3.415,0,0,0-1.234-.219,4.9,4.9,0,0,0-3.8,1.656Zm0,0" fill="#fff"/>
        </g>
        <g id="Group_17" data-name="Group 17" transform="translate(145.897 396)">
          <path id="Path_19" data-name="Path 19" d="M.578-10.734a3.392,3.392,0,0,1,.969-2.484,3.371,3.371,0,0,1,2.531-1,3.4,3.4,0,0,1,2.516.984,3.426,3.426,0,0,1,.969,2.5A3.427,3.427,0,0,1,6.594-8.25a3.384,3.384,0,0,1-2.516.984A3.42,3.42,0,0,1,1.547-8.25,3.411,3.411,0,0,1,.578-10.734Zm1.641,0A2.14,2.14,0,0,0,2.734-9.25a1.736,1.736,0,0,0,1.344.578A1.747,1.747,0,0,0,5.422-9.25a2.113,2.113,0,0,0,.531-1.484,2.146,2.146,0,0,0-.531-1.5,1.735,1.735,0,0,0-1.344-.594,1.724,1.724,0,0,0-1.344.594A2.173,2.173,0,0,0,2.219-10.734ZM2.7,0l8.953-14h1.422L4.109,0ZM8.125-3.2a3.41,3.41,0,0,1,.969-2.5,3.354,3.354,0,0,1,2.516-1,3.383,3.383,0,0,1,2.531,1,3.426,3.426,0,0,1,.969,2.5,3.353,3.353,0,0,1-.984,2.469A3.384,3.384,0,0,1,11.609.25,3.4,3.4,0,0,1,9.094-.734,3.356,3.356,0,0,1,8.125-3.2Zm1.609,0a2.1,2.1,0,0,0,.531,1.484,1.763,1.763,0,0,0,1.344.563,1.74,1.74,0,0,0,1.344-.562A2.113,2.113,0,0,0,13.484-3.2a2.207,2.207,0,0,0-.531-1.516,1.7,1.7,0,0,0-1.344-.594,1.724,1.724,0,0,0-1.344.594A2.188,2.188,0,0,0,9.734-3.2Zm0,0" fill="#fff"/>
        </g>
      </g>
    </g>
  </g>
</svg>
