<?xml version="1.0" encoding="UTF-8"?>
<svg xmlns="http://www.w3.org/2000/svg" xmlns:xlink="http://www.w3.org/1999/xlink" width="50pt" height="50pt" viewBox="0 0 50 50" version="1.1">
<g id="surface1">
<path style=" stroke:none;fill-rule:nonzero;fill:rgb(25.882353%,52.156863%,95.686275%);fill-opacity:1;" d="M 49.972656 25.46875 C 49.972656 23.417969 49.804688 21.925781 49.433594 20.375 L 25.496094 20.375 L 25.496094 29.621094 L 39.546875 29.621094 C 39.265625 31.917969 37.734375 35.378906 34.335938 37.703125 L 34.289062 38.011719 L 41.855469 43.742188 L 42.382812 43.792969 C 47.199219 39.449219 49.972656 33.050781 49.972656 25.46875 "/>
<path style=" stroke:none;fill-rule:nonzero;fill:rgb(20.392157%,65.882353%,32.54902%);fill-opacity:1;" d="M 25.496094 49.828125 C 32.382812 49.828125 38.160156 47.613281 42.382812 43.792969 L 34.335938 37.703125 C 32.183594 39.171875 29.292969 40.195312 25.496094 40.195312 C 18.757812 40.195312 13.035156 35.847656 10.992188 29.839844 L 10.695312 29.867188 L 2.824219 35.816406 L 2.722656 36.097656 C 6.914062 44.234375 15.527344 49.828125 25.496094 49.828125 "/>
<path style=" stroke:none;fill-rule:nonzero;fill:rgb(98.431373%,73.72549%,1.960784%);fill-opacity:1;" d="M 10.992188 29.839844 C 10.457031 28.292969 10.144531 26.628906 10.144531 24.914062 C 10.144531 23.199219 10.457031 21.535156 10.964844 19.988281 L 10.953125 19.65625 L 2.984375 13.609375 L 2.722656 13.730469 C 0.992188 17.109375 0.00390625 20.898438 0.00390625 24.914062 C 0.00390625 28.929688 0.992188 32.71875 2.722656 36.097656 L 10.992188 29.839844 "/>
<path style=" stroke:none;fill-rule:nonzero;fill:rgb(92.156863%,26.27451%,20.784314%);fill-opacity:1;" d="M 25.496094 9.632812 C 30.285156 9.632812 33.515625 11.652344 35.355469 13.34375 L 42.550781 6.476562 C 38.132812 2.464844 32.382812 0 25.496094 0 C 15.527344 0 6.914062 5.589844 2.722656 13.730469 L 10.964844 19.988281 C 13.035156 13.980469 18.757812 9.632812 25.496094 9.632812 "/>
</g>
</svg>
