<svg xmlns="http://www.w3.org/2000/svg" xmlns:xlink="http://www.w3.org/1999/xlink" width="101" height="34" viewBox="0 0 101 34">
  <defs>
    <clipPath id="clip-White_logo">
      <rect width="101" height="34"/>
    </clipPath>
  </defs>
  <g id="White_logo" data-name="White logo" clip-path="url(#clip-White_logo)">
    <g id="Group_3567" data-name="Group 3567">
      <g id="Group_3565" data-name="Group 3565" transform="translate(11 1)">
        <g id="Group_3454" data-name="Group 3454" transform="translate(0)">
          <g id="Group_8" data-name="Group 8">
            <path id="Path_594" data-name="Path 594" d="M.46,0h.46a.46.46,0,0,1,.46.46V25.215a.46.46,0,0,1-.46.46H.46a.46.46,0,0,1-.46-.46V.46A.46.46,0,0,1,.46,0Z" transform="translate(0 7.022)" fill="#fff"/>
            <path id="Path_595" data-name="Path 595" d="M.46,0h.46a.46.46,0,0,1,.46.46V25.215a.46.46,0,0,1-.46.46H.46a.46.46,0,0,1-.46-.46V.46A.46.46,0,0,1,.46,0Z" transform="translate(9.899 7.022)" fill="#fff"/>
            <path id="Path_596" data-name="Path 596" d="M.46,0h.46a.46.46,0,0,1,.46.46V29.014a.46.46,0,0,1-.46.46H.46a.46.46,0,0,1-.46-.46V.46A.46.46,0,0,1,.46,0Z" transform="translate(4.95 0)" fill="#fff"/>
          </g>
          <path id="Path_4" data-name="Path 4" d="M1542,1675.116v15.413" transform="translate(-1521.453 -1664.021)" fill="none" stroke="#fff" stroke-width="0.5" opacity="0.297"/>
        </g>
      </g>
    </g>
    <g id="Group_3570" data-name="Group 3570" transform="translate(-77.093 -201.01)">
      <g id="Group_3568" data-name="Group 3568" transform="translate(117.373 212.01)">
        <path id="Path_7112" data-name="Path 7112" d="M118.146,212.461h2.721a2.123,2.123,0,1,1,0,4.245h-2.1v3.015h-.621Zm2.656.566h-2.035v3.113H120.8a1.557,1.557,0,1,0,0-3.113Z" transform="translate(-118.146 -212.341)" fill="#fff"/>
        <path id="Path_7113" data-name="Path 7113" d="M143.778,216.717h-1.6v3h-.62v-7.26h2.71a2.057,2.057,0,0,1,2.209,2.122,2,2,0,0,1-2.014,2.09l2.1,3.048h-.751Zm.435-3.69h-2.035v3.124h2.035a1.563,1.563,0,1,0,0-3.124Z" transform="translate(-135.343 -212.341)" fill="#fff"/>
        <path id="Path_7115" data-name="Path 7115" d="M197.235,212.461h2.721a2.123,2.123,0,1,1,0,4.245h-2.1v3.015h-.621Zm2.656.566h-2.035v3.113h2.035a1.557,1.557,0,1,0,0-3.113Z" transform="translate(-176.239 -212.341)" fill="#fff"/>
        <path id="Path_7116" data-name="Path 7116" d="M220.646,212.461h4.6v.566h-3.984v2.688h3.907v.566h-3.907v2.873h3.984v.566h-4.6Z" transform="translate(-193.436 -212.341)" fill="#fff"/>
        <path id="Path_7117" data-name="Path 7117" d="M245.991,216.717h-1.6v3h-.62v-7.26h2.71a2.057,2.057,0,0,1,2.21,2.122,2,2,0,0,1-2.014,2.09l2.1,3.048h-.751Zm.435-3.69h-2.035v3.124h2.035a1.563,1.563,0,1,0,0-3.124Z" transform="translate(-210.422 -212.341)" fill="#fff"/>
        <path id="Path_7118" data-name="Path 7118" d="M268.12,213.027h-2.373v-.566h5.377v.566h-2.373v6.694h-.631Z" transform="translate(-226.564 -212.341)" fill="#fff"/>
        <path id="Path_7119" data-name="Path 7119" d="M290.935,216.619l-2.884-4.158h.751l2.449,3.57,2.449-3.57h.751l-2.884,4.158v3.1h-.631Z" transform="translate(-242.947 -212.341)" fill="#fff"/>
      </g>
      <g id="Group_3569" data-name="Group 3569" transform="translate(117.093 222.591)">
        <path id="Path_7120" data-name="Path 7120" d="M117.673,252.5a2.568,2.568,0,0,0,1.883.821c.857,0,1.2-.42,1.2-.812,0-.536-.634-.7-1.357-.884-.973-.241-2.116-.527-2.116-1.785,0-.982.866-1.741,2.169-1.741a3.1,3.1,0,0,1,2.232.83l-.6.777a2.421,2.421,0,0,0-1.723-.678c-.616,0-1.009.295-1.009.741,0,.464.607.616,1.312.794.982.25,2.151.554,2.151,1.848,0,.991-.7,1.839-2.3,1.839a3.185,3.185,0,0,1-2.419-.946Z" transform="translate(-117.093 -248.101)" fill="#fff"/>
        <path id="Path_7121" data-name="Path 7121" d="M164.036,251.787h-3.1v2.6h-1.044v-5.954h1.044v2.437h3.1v-2.437h1.044v5.954h-1.044Z" transform="translate(-148.35 -248.342)" fill="#fff"/>
        <path id="Path_7122" data-name="Path 7122" d="M207.624,253.242H204.8l-.437,1.142h-1.142l2.339-5.954h1.3l2.339,5.954h-1.142Zm-2.526-.92h2.232l-1.116-3.008Z" transform="translate(-179.993 -248.342)" fill="#fff"/>
        <path id="Path_7123" data-name="Path 7123" d="M251.6,252.162h-1.035v2.223h-1.044v-5.954h2.615a1.808,1.808,0,0,1,1.946,1.866,1.67,1.67,0,0,1-1.41,1.75l1.455,2.339h-1.205Zm.393-2.812h-1.428v1.892h1.428a.949.949,0,1,0,0-1.892Z" transform="translate(-213.801 -248.342)" fill="#fff"/>
        <path id="Path_7124" data-name="Path 7124" d="M292.025,248.431H296.1v.92H293.07v1.544h2.972v.919H293.07v1.651H296.1v.919h-4.079Z" transform="translate(-244.839 -248.342)" fill="#fff"/>
      </g>
    </g>
    <path id="Path_7125" data-name="Path 7125" d="M37.451-56.485a4.323,4.323,0,0,1-.249-1.481,4.282,4.282,0,0,1,.252-1.481,3.59,3.59,0,0,1,.706-1.192,3.218,3.218,0,0,1,1.117-.791,3.573,3.573,0,0,1,1.444-.289,3.457,3.457,0,0,1,1.845.5,3.326,3.326,0,0,1,1.245,1.348,4.133,4.133,0,0,1,.435,1.908,4.133,4.133,0,0,1-.435,1.908,3.326,3.326,0,0,1-1.245,1.348,3.457,3.457,0,0,1-1.845.5,3.573,3.573,0,0,1-1.444-.289,3.218,3.218,0,0,1-1.117-.791A3.626,3.626,0,0,1,37.451-56.485Zm.4-1.481a3.7,3.7,0,0,0,.348,1.632,2.718,2.718,0,0,0,1,1.136,2.764,2.764,0,0,0,1.515.417,2.781,2.781,0,0,0,1.513-.414,2.705,2.705,0,0,0,1.009-1.139,3.7,3.7,0,0,0,.35-1.632,3.714,3.714,0,0,0-.35-1.637,2.688,2.688,0,0,0-1.009-1.136,2.794,2.794,0,0,0-1.513-.411,2.634,2.634,0,0,0-2.081.894A3.343,3.343,0,0,0,37.855-57.966Z" transform="translate(15.298 72.718)" fill="#fff" stroke="rgba(0,0,0,0)" stroke-width="1"/>
  </g>
</svg>
